<svg xmlns="http://www.w3.org/2000/svg" viewBox="0 0 356 80" role="img" aria-labelledby="title desc">
  <title id="title">EarlyCove</title>
  <desc id="desc">EarlyCove radar cove brand mark and wordmark</desc>
  <defs>
    <linearGradient id="surface" x1="8" y1="6" x2="64" y2="72" gradientUnits="userSpaceOnUse">
      <stop stop-color="#17242a" />
      <stop offset="0.48" stop-color="#0d151c" />
      <stop offset="1" stop-color="#080b10" />
    </linearGradient>
    <linearGradient id="lime-signal" x1="12" y1="51" x2="60" y2="24" gradientUnits="userSpaceOnUse">
      <stop stop-color="#b7f34a" />
      <stop offset="1" stop-color="#e9ff9b" />
    </linearGradient>
    <linearGradient id="cyan-data" x1="13" y1="58" x2="57" y2="20" gradientUnits="userSpaceOnUse">
      <stop stop-color="#5ee7e7" />
      <stop offset="1" stop-color="#b4fff0" />
    </linearGradient>
    <radialGradient id="signal-glow" cx="0" cy="0" r="1" gradientUnits="userSpaceOnUse" gradientTransform="translate(42 34) rotate(115) scale(31)">
      <stop stop-color="#b7f34a" stop-opacity=".22" />
      <stop offset="1" stop-color="#b7f34a" stop-opacity="0" />
    </radialGradient>
  </defs>

  <g transform="translate(4 4)">
    <rect x="1" y="1" width="70" height="70" rx="18" fill="url(#surface)" stroke="#23343a" stroke-width="2" />
    <circle cx="42" cy="34" r="31" fill="url(#signal-glow)" />
    <path d="M53 20.2A25.1 25.1 0 0 0 12.3 30M12.3 43.2A25.1 25.1 0 0 0 53 49.8" fill="none" stroke="url(#cyan-data)" stroke-width="2.7" stroke-linecap="round" opacity=".74" />
    <path d="M47 25.9A17.7 17.7 0 0 0 19.5 32.3M19.5 41.8A17.7 17.7 0 0 0 47 48.2" fill="none" stroke="#5ee7e7" stroke-width="1.3" stroke-linecap="round" opacity=".33" />
    <path d="M12.8 48.2h10l6.7-12.5 5.9 8.4 7-16.8 12.6 6.1" fill="none" stroke="url(#lime-signal)" stroke-width="5.2" stroke-linecap="round" stroke-linejoin="round" />
    <path d="M13.6 56c6.4-1.3 10.7-4.8 16.7-4.8 6.6 0 10.4 4.9 21.8.1" fill="none" stroke="url(#cyan-data)" stroke-width="2.8" stroke-linecap="round" opacity=".9" />
    <circle cx="55.4" cy="33.4" r="3.7" fill="#f4f7f2" />
    <circle cx="55.4" cy="33.4" r="6.7" fill="none" stroke="#b7f34a" stroke-width="1.1" opacity=".36" />
    <circle cx="13.1" cy="48.2" r="1.8" fill="#b7f34a" />
  </g>

  <text x="91" y="51" fill="#f4f7f2" font-family="'Space Grotesk', 'Arial', sans-serif" font-size="39" font-weight="700" letter-spacing="-1.6">EarlyCove</text>
</svg>
